<?xml version="1.0" standalone="no"?>
<!DOCTYPE svg PUBLIC "-//W3C//DTD SVG 20010904//EN"
 "http://www.w3.org/TR/2001/REC-SVG-20010904/DTD/svg10.dtd">
<svg version="1.0" xmlns="http://www.w3.org/2000/svg"
 width="1470.000000pt" height="1536.000000pt" viewBox="0 0 1470.000000 1536.000000"
 preserveAspectRatio="xMidYMid meet">
<metadata>
Created by potrace 1.16, written by Peter Selinger 2001-2019
</metadata>
<g transform="translate(0.000000,1536.000000) scale(0.100000,-0.100000)"
fill="#000000" stroke="none">
<path d="M3685 15349 c-160 -37 -487 -186 -657 -300 -416 -279 -1110 -909
-1392 -1263 -30 -38 -69 -99 -86 -135 -56 -116 -165 -292 -278 -451 -240 -335
-359 -587 -438 -924 -69 -296 -106 -413 -232 -742 -73 -190 -120 -386 -132
-552 -16 -218 -40 -316 -118 -482 -103 -220 -171 -503 -282 -1165 -58 -349
-74 -504 -67 -650 5 -98 152 -1013 217 -1348 46 -235 86 -322 204 -435 158
-151 298 -247 398 -273 26 -6 225 -14 493 -19 565 -10 751 -31 985 -109 172
-58 268 -117 425 -262 128 -118 206 -180 330 -262 158 -104 308 -229 455 -377
149 -151 193 -214 221 -322 22 -83 39 -283 39 -468 1 -204 24 -340 59 -340 50
0 87 -96 76 -198 -13 -119 -45 -202 -249 -640 -218 -467 -289 -630 -367 -835
-124 -322 -195 -590 -171 -642 6 -14 18 -25 26 -25 28 0 128 78 273 214 142
133 258 226 282 226 33 0 1 -98 -105 -318 -108 -223 -134 -313 -100 -341 24
-20 72 9 183 107 214 190 418 298 617 328 55 8 128 27 161 41 192 82 395 130
595 139 140 7 180 -2 180 -38 0 -39 -49 -95 -184 -210 -133 -115 -250 -228
-267 -260 -16 -29 20 -38 203 -49 125 -8 270 -8 523 0 599 20 662 32 1079 210
265 114 347 142 438 148 121 9 223 -33 278 -113 19 -29 26 -53 28 -109 5 -94
-12 -154 -93 -325 -82 -173 -105 -244 -105 -320 0 -77 16 -114 79 -183 56 -63
87 -144 77 -201 -22 -116 -257 -467 -418 -623 -35 -34 -101 -78 -192 -128
-213 -116 -366 -226 -366 -264 0 -47 254 -56 1610 -55 1324 0 2247 18 2769 54
180 13 221 19 228 37 9 23 -37 64 -112 98 -73 34 -98 55 -109 91 -8 27 -55 58
-187 125 -139 69 -209 118 -300 209 -219 219 -387 545 -458 890 -51 246 -54
390 -8 458 45 68 97 96 186 100 65 3 83 0 121 -20 49 -27 90 -78 90 -114 0
-13 4 -25 9 -28 18 -11 92 57 192 176 197 236 638 666 947 926 153 128 244
195 349 257 263 155 639 545 887 918 41 61 115 189 164 282 131 251 246 437
357 580 142 184 200 265 227 322 16 35 76 125 132 201 133 179 172 236 239
357 104 188 187 412 187 504 0 46 52 194 119 338 68 149 97 276 111 478 12
178 17 213 65 465 132 680 191 1943 130 2751 -18 243 -27 312 -70 524 -48 236
-64 381 -75 665 -10 264 -23 344 -60 370 -12 8 -37 28 -55 43 -57 48 -71 133
-25 157 39 21 193 -33 279 -97 43 -33 112 -54 134 -42 39 22 29 145 -20 244
-13 27 -46 73 -73 101 -94 99 -86 194 17 208 109 15 111 90 3 111 -60 11 -70
16 -81 36 -8 15 -7 24 2 36 21 24 53 32 163 42 152 13 196 41 247 155 26 60
59 208 59 271 0 70 -35 138 -111 214 -74 74 -171 141 -206 141 -78 0 -247 145
-268 231 -9 36 56 106 200 215 123 92 215 184 215 215 0 45 -148 72 -320 58
-100 -9 -144 -20 -248 -64 -175 -73 -156 39 33 198 66 55 148 101 260 143 64
25 87 61 65 102 -20 36 -115 85 -209 108 -109 27 -334 27 -411 0 -67 -23 -119
-55 -179 -111 -165 -152 -426 -251 -1030 -394 -358 -85 -431 -122 -661 -334
-448 -411 -822 -869 -934 -1143 -92 -225 -217 -491 -413 -884 -252 -505 -371
-731 -550 -1042 -207 -362 -230 -436 -303 -1018 -59 -469 -88 -560 -215 -686
-238 -234 -516 -417 -745 -489 -190 -59 -292 -70 -670 -70 -309 1 -360 3 -490
23 -277 44 -737 156 -974 239 -181 63 -376 173 -510 288 -70 60 -168 179 -201
245 -72 142 -165 654 -260 1425 -39 317 -72 535 -110 718 -35 166 -53 317 -64
520 -8 134 -16 192 -36 262 -31 109 -139 333 -304 630 -155 279 -350 671 -395
796 -19 53 -40 127 -46 165 -13 89 -110 286 -291 594 -167 285 -264 473 -278
540 -23 107 -102 208 -178 229 -45 13 -122 13 -178 0z m4838 -12567 c23 -26
36 -66 48 -151 6 -42 20 -91 31 -109 23 -38 98 -96 177 -138 84 -45 146 -107
183 -182 32 -65 33 -69 32 -197 0 -152 -11 -192 -123 -486 l-69 -181 100 -111
c115 -129 215 -274 224 -325 11 -56 -26 -112 -161 -248 -127 -128 -224 -200
-284 -209 -20 -3 -61 -13 -92 -21 -83 -21 -120 -18 -168 14 -91 61 -143 163
-236 461 -35 113 -89 272 -119 352 -30 81 -62 180 -70 221 -50 242 -42 596 19
801 20 66 76 170 135 249 99 131 279 278 340 278 9 0 24 -8 33 -18z"/>
</g>
</svg>
