<?xml version="1.0" standalone="no"?>
<!DOCTYPE svg PUBLIC "-//W3C//DTD SVG 20010904//EN"
 "http://www.w3.org/TR/2001/REC-SVG-20010904/DTD/svg10.dtd">
<svg version="1.0" xmlns="http://www.w3.org/2000/svg"
 width="602.000000pt" height="1536.000000pt" viewBox="0 0 602.000000 1536.000000"
 preserveAspectRatio="xMidYMid meet">
<metadata>
Created by potrace 1.16, written by Peter Selinger 2001-2019
</metadata>
<g transform="translate(0.000000,1536.000000) scale(0.100000,-0.100000)"
fill="#000000" stroke="none">
<path d="M2860 15346 c-243 -52 -416 -185 -479 -368 -28 -82 -44 -228 -40
-372 4 -122 3 -126 -16 -119 -80 27 -117 -28 -98 -144 15 -87 51 -159 114
-228 43 -47 63 -80 89 -149 38 -99 117 -232 186 -312 l44 -52 0 -121 c0 -100
-4 -133 -25 -198 -29 -93 -80 -172 -138 -214 -58 -43 -210 -118 -402 -199
-136 -58 -187 -74 -316 -100 -246 -49 -332 -102 -459 -286 -103 -149 -128
-242 -140 -521 -7 -150 -22 -295 -50 -495 -60 -428 -71 -562 -79 -938 -9 -386
-9 -382 -96 -625 -193 -535 -199 -564 -249 -1180 -36 -437 -45 -522 -66 -622
-39 -189 -84 -265 -261 -443 -146 -146 -168 -184 -252 -421 -31 -86 -72 -192
-91 -234 -20 -43 -36 -82 -36 -86 0 -21 40 -29 73 -15 41 17 73 57 116 147 36
74 88 142 102 134 15 -10 11 -39 -52 -319 -70 -312 -90 -438 -80 -486 12 -62
62 -47 102 32 14 28 129 441 129 465 0 1 5 3 10 3 14 0 12 -65 -5 -255 -22
-249 -17 -405 15 -405 41 0 95 209 120 465 19 201 25 183 30 -95 5 -276 12
-327 43 -317 34 10 78 233 93 462 9 143 20 163 28 49 22 -301 24 -315 42 -335
9 -10 21 -19 26 -19 27 0 50 132 63 370 4 63 18 169 33 235 24 111 26 140 28
401 2 347 1 342 165 702 187 412 300 696 353 893 32 118 56 261 101 604 50
388 59 431 137 730 38 149 85 342 103 429 l33 160 15 -70 c76 -335 107 -567
114 -830 12 -460 -48 -923 -192 -1489 -136 -536 -174 -801 -182 -1290 -8 -443
9 -664 92 -1210 74 -487 106 -771 126 -1135 14 -261 7 -422 -31 -646 -60 -361
-86 -687 -76 -974 7 -218 18 -318 96 -875 127 -902 149 -1278 87 -1448 -34
-93 -101 -200 -213 -342 -93 -117 -223 -321 -245 -384 -14 -41 4 -89 37 -97
13 -3 43 -21 66 -40 24 -19 50 -34 59 -34 8 0 26 -11 39 -25 30 -32 64 -32
106 0 18 14 37 25 41 25 5 0 17 -16 26 -35 16 -33 19 -35 67 -35 63 0 102 19
129 64 12 18 37 46 56 61 84 64 95 85 121 248 18 110 43 159 108 209 28 20 58
52 68 70 25 48 23 141 -8 304 -26 134 -26 148 -20 384 10 387 48 877 81 1030
8 36 32 144 53 240 100 442 114 580 106 1050 -8 477 -4 534 80 983 33 174 68
419 101 701 27 232 29 246 99 656 77 450 111 750 126 1090 5 124 15 245 23
269 15 53 38 71 63 50 37 -30 45 -75 54 -317 13 -359 54 -698 145 -1222 51
-293 57 -340 85 -585 29 -249 75 -561 110 -740 64 -327 64 -327 65 -875 1
-428 4 -522 19 -620 25 -164 61 -349 106 -540 57 -240 85 -491 110 -990 16
-325 13 -441 -15 -584 -30 -150 -32 -246 -7 -296 9 -19 43 -54 74 -77 67 -51
88 -98 107 -233 17 -114 38 -160 98 -207 27 -21 61 -55 76 -76 47 -66 138 -88
180 -44 12 13 27 31 32 41 9 16 13 15 50 -13 49 -37 69 -38 97 -6 12 14 30 25
39 25 10 0 35 15 55 33 21 17 51 37 68 42 37 12 60 54 51 93 -3 16 -34 75 -69
133 -61 99 -105 161 -239 337 -77 101 -130 192 -159 272 -22 61 -23 78 -22
300 2 278 20 467 99 1028 72 513 93 680 105 842 24 325 -1 710 -73 1125 -30
171 -31 193 -31 435 1 375 35 732 129 1345 82 540 100 771 92 1205 -8 453 -48
754 -158 1190 -81 320 -112 464 -148 675 -53 322 -66 478 -66 820 1 272 4 328
23 455 26 161 89 489 101 522 6 15 14 -9 30 -93 25 -126 69 -305 131 -534 49
-182 69 -294 115 -647 60 -460 80 -563 154 -778 70 -208 163 -433 296 -720
174 -375 168 -352 170 -705 1 -265 2 -287 28 -405 18 -82 31 -180 37 -290 14
-236 32 -320 66 -320 28 0 42 64 53 238 6 94 11 179 11 189 0 10 3 13 9 7 5
-5 14 -79 20 -164 25 -325 79 -504 118 -390 8 23 12 124 13 300 2 275 9 298
29 94 30 -303 90 -519 132 -477 21 21 23 182 4 420 -16 206 -16 247 1 230 4
-4 31 -98 60 -209 60 -232 66 -251 100 -295 31 -41 61 -43 75 -5 16 40 -1 149
-78 494 -36 163 -63 304 -59 314 6 16 10 15 34 -9 15 -15 52 -73 82 -129 67
-124 120 -167 165 -134 18 13 16 18 -27 117 -25 57 -67 165 -93 239 -74 213
-100 255 -250 407 -240 244 -260 307 -310 933 -57 722 -67 774 -260 1305 -87
242 -87 238 -96 625 -8 377 -19 511 -80 940 -28 203 -42 345 -49 495 -13 315
-44 405 -207 607 -95 117 -180 159 -407 203 -113 21 -165 38 -304 96 -198 84
-344 157 -405 204 -57 44 -103 116 -133 210 -21 65 -24 96 -24 220 l0 144 44
63 c57 82 87 144 121 246 23 68 36 91 72 125 98 92 163 318 110 385 -11 14
-51 16 -75 3 -16 -8 -17 7 -18 197 -1 309 -27 396 -150 511 -121 114 -262 171
-434 177 -65 2 -130 -2 -170 -10z"/>
</g>
</svg>
