<?xml version="1.0" standalone="no"?>
<!DOCTYPE svg PUBLIC "-//W3C//DTD SVG 20010904//EN"
 "http://www.w3.org/TR/2001/REC-SVG-20010904/DTD/svg10.dtd">
<svg version="1.0" xmlns="http://www.w3.org/2000/svg"
 width="1446.000000pt" height="1536.000000pt" viewBox="0 0 1446.000000 1536.000000"
 preserveAspectRatio="xMidYMid meet">
<metadata>
Created by potrace 1.16, written by Peter Selinger 2001-2019
</metadata>
<g transform="translate(0.000000,1536.000000) scale(0.100000,-0.100000)"
fill="#000000" stroke="none">
<path d="M7000 15353 c-499 -103 -2199 -526 -3090 -769 -615 -168 -1120 -322
-1252 -381 -56 -25 -60 -30 -151 -172 -290 -452 -654 -1043 -1774 -2879 l-733
-1204 0 -2315 0 -2315 637 -1012 c925 -1469 1050 -1664 1382 -2154 320 -472
538 -771 706 -965 55 -64 85 -87 129 -97 527 -127 1570 -363 3706 -839 l1126
-251 1999 649 c1100 357 2007 652 2015 656 8 3 206 335 439 738 1226 2114
1549 2659 1814 3057 155 232 288 395 351 427 26 13 30 13 51 -7 l23 -21 5 23
c42 167 66 877 73 2168 12 1863 -21 2383 -163 2552 -145 174 -635 944 -1288
2023 -738 1219 -1249 2024 -1387 2181 -23 25 -49 40 -109 59 -508 160 -2964
651 -4078 815 -201 29 -383 43 -431 33z m-6901 -6857 c18 -785 7 -2100 -18
-2331 l-7 -70 -9 130 c-12 169 -12 2666 0 2810 l9 110 7 -84 c5 -47 13 -301
18 -565z"/>
</g>
</svg>
