<?xml version="1.0" standalone="no"?>
<!DOCTYPE svg PUBLIC "-//W3C//DTD SVG 20010904//EN"
 "http://www.w3.org/TR/2001/REC-SVG-20010904/DTD/svg10.dtd">
<svg version="1.0" xmlns="http://www.w3.org/2000/svg"
 width="1340.000000pt" height="1536.000000pt" viewBox="0 0 1340.000000 1536.000000"
 preserveAspectRatio="xMidYMid meet">
<metadata>
Created by potrace 1.16, written by Peter Selinger 2001-2019
</metadata>
<g transform="translate(0.000000,1536.000000) scale(0.100000,-0.100000)"
fill="#000000" stroke="none">
<path d="M1909 15349 c-377 -40 -707 -261 -955 -640 -35 -52 -107 -176 -160
-275 -170 -315 -247 -416 -439 -574 -240 -197 -343 -353 -353 -537 l-5 -83 46
0 c93 0 278 75 647 261 287 145 317 153 579 146 233 -6 283 -17 467 -107 290
-141 343 -266 344 -805 0 -249 -5 -357 -35 -723 -22 -271 -32 -646 -24 -922
16 -528 110 -1695 170 -2090 91 -599 314 -1321 574 -1857 168 -347 328 -594
573 -888 134 -161 582 -646 761 -825 404 -404 896 -774 1295 -975 264 -134
524 -233 769 -294 66 -16 122 -32 125 -36 15 -15 -46 -47 -148 -79 -157 -50
-711 -188 -1287 -321 -550 -127 -722 -171 -920 -239 -160 -55 -622 -251 -831
-352 -181 -88 -225 -126 -290 -253 -61 -119 -56 -128 33 -72 32 20 59 26 138
32 169 13 189 22 658 289 106 60 197 110 202 110 16 0 -31 -55 -173 -205 -175
-184 -231 -259 -469 -623 -250 -383 -359 -558 -426 -684 l-55 -105 0 -110 c0
-128 9 -233 21 -233 4 0 22 27 40 61 18 34 67 99 108 146 117 131 151 178 283
391 203 328 399 616 536 787 95 119 286 329 337 371 51 42 68 38 41 -9 -10
-18 -66 -117 -124 -222 -58 -104 -160 -280 -227 -390 -163 -267 -180 -298
-209 -385 -40 -123 -72 -380 -46 -380 11 0 20 10 92 100 24 30 60 66 81 80 72
50 213 249 449 639 227 372 292 451 433 518 75 35 78 36 173 30 124 -7 266
-39 632 -143 327 -93 388 -105 409 -80 17 20 40 20 130 0 40 -9 75 -14 78 -10
29 29 -302 231 -467 284 -36 12 -155 42 -265 68 -296 69 -350 93 -300 132 27
21 196 85 335 126 442 131 1447 307 1756 307 122 0 268 -22 365 -56 64 -22
143 -80 165 -120 17 -33 18 -35 0 -72 -43 -91 -156 -231 -491 -608 -132 -149
-314 -356 -404 -460 -372 -429 -624 -636 -774 -635 -43 0 -157 25 -237 51
-149 49 -495 213 -790 374 l-105 57 -115 -6 c-115 -5 -220 -22 -220 -34 0 -4
33 -24 73 -45 41 -20 105 -64 143 -97 141 -122 526 -327 752 -399 70 -22 153
-48 185 -56 35 -10 57 -21 54 -28 -2 -6 -37 -24 -78 -40 -340 -134 -831 -364
-969 -454 -141 -93 -320 -270 -456 -449 -55 -72 -108 -179 -130 -259 -18 -66
-33 -367 -17 -350 5 6 27 37 48 69 22 33 85 107 140 165 55 58 162 174 237
257 284 313 262 300 1223 768 143 69 266 126 273 126 6 0 12 -8 12 -18 0 -24
-104 -226 -235 -457 -59 -104 -143 -259 -187 -344 l-78 -154 0 -176 0 -176 49
77 c30 46 62 83 80 93 58 30 125 130 301 450 160 291 361 569 441 610 38 20
62 19 109 -5 56 -28 144 -114 277 -267 116 -134 151 -163 197 -163 19 0 36
-16 73 -66 40 -55 49 -62 51 -44 5 31 -25 160 -60 260 -44 126 -86 199 -206
360 -156 210 -157 213 -142 263 15 50 94 174 178 278 34 42 269 281 523 530
254 250 516 513 582 584 322 346 452 574 407 710 -7 20 -59 107 -116 192 -57
86 -104 161 -104 168 0 38 61 49 196 35 495 -48 1261 -284 1667 -513 292 -165
625 -497 1343 -1342 491 -578 704 -763 948 -820 79 -19 197 -19 241 -1 32 14
35 18 35 58 0 60 9 88 29 88 25 0 220 -97 380 -189 273 -157 373 -196 451
-172 22 6 47 23 56 36 42 65 -22 184 -506 930 -555 855 -1056 1684 -1322 2186
-178 337 -418 858 -418 908 0 9 14 52 31 96 48 123 45 179 -14 299 -235 473
-1431 1920 -2337 2827 -380 381 -547 530 -1170 1049 -1014 845 -1565 1334
-2056 1824 -421 421 -669 729 -921 1146 -256 422 -412 787 -537 1256 -61 230
-105 354 -182 514 -178 370 -454 659 -793 834 -210 107 -437 174 -666 196
-126 11 -473 11 -586 -1z"/>
</g>
</svg>
